# AST/ASF file generated using VICON BodyLanguage
# -----------------------------------------------
:version 1.10
:name VICON
:units
  mass 1.0
  length 0.45
  angle deg
:documentation
   .ast/.asf automatically generated from VICON data using
   VICON BodyBuilder and BodyLanguage model FoxedUp or BRILLIANT.MOD
:root
   order TX TY TZ RX RY RZ
   axis XYZ
   position 0 0 0  
   orientation 0 0 0 
:bonedata
  begin
     id 1 
     name lhipjoint
     direction 0.645893 -0.654526 0.392961 
     length 2.38111 
     axis 0 0 0  XYZ
  end
  begin
     id 2 
     name lfemur
     direction 0.34202 -0.939693 0  
     length 6.6822  
     axis 0 0 20  XYZ
    dof rx ry rz
    limits (-160.0 20.0)
           (-70.0 70.0)
           (-60.0 70.0)
  end
  begin
     id 3 
     name ltibia
     direction 0.34202 -0.939693 0   
     length 6.93904   
     axis 0 0 20   XYZ
    dof rx
    limits (-10.0 170.0)
  end
  begin
     id 4 
     name lfoot
     direction 0.0694967 -0.190941 0.979138   
     length 2.13616   
     axis -90 7.62852e-016 20   XYZ
    dof rx rz
    limits (-45.0 90.0)
           (-70.0 20.0)
  end
  begin
     id 5 
     name ltoes
     direction 1.535e-011 -4.2202e-011 1   
     length 1.07536   
     axis -90 7.62852e-016 20   XYZ
    dof rx
    limits (-90.0 20.0)
  end
  begin
     id 6 
     name rhipjoint
     direction -0.700219 -0.612087 0.367481   
     length 2.54621  
     axis 0 0 0  XYZ 
  end
  begin
     id 7 
     name rfemur
     direction -0.34202 -0.939693 0   
     length 6.55353   
     axis 0 0 -20   XYZ
    dof rx ry rz
    limits (-160.0 20.0)
           (-70.0 70.0)
           (-70.0 60.0)
  end
  begin
     id 8 
     name rtibia
     direction -0.34202 -0.939693 0   
     length 6.8736   
     axis 0 0 -20   XYZ
    dof rx
    limits (-10.0 170.0)
 end
 begin
     id 9 
     name rfoot
     direction -0.0679995 -0.186827 0.980037   
     length 2.1218  
     axis -90 -7.62852e-016 -20   XYZ
    dof rx rz
    limits (-45.0 90.0)
           (-20.0 70.0)
  end
  begin
     id 10 
     name rtoes
     direction -1.53589e-011 -4.21772e-011 1   
     length 1.06864   
     axis -90 -7.62852e-016 -20   XYZ
    dof rx
    limits (-90.0 20.0)
  end
  begin
     id 11 
     name lowerback
     direction -0.0416607 0.996347 -0.0745409   
     length 2.12205   
     axis 0 0 0   XYZ
    dof rx ry rz
    limits (-20.0 45.0)
           (-30.0 30.0)
           (-30.0 30.0)
  end
  begin
     id 12 
     name upperback
     direction -0.000153993 0.999276 -0.0380568   
     length 2.12759   
     axis 0 0 0   XYZ
    dof rx ry rz
    limits (-20.0 45.0)
           (-30.0 30.0)
           (-30.0 30.0)
  end
  begin
     id 13 
     name thorax
     direction 0.0187671 0.999821 -0.00241421   
     length 2.13704   
     axis 0 0 0   XYZ
    dof rx ry rz
    limits (-20.0 45.0)
           (-30.0 30.0)
           (-30.0 30.0)
  end
  begin
     id 14 
     name lowerneck
     direction 0.0268157 0.964865 0.261374   
     length 1.65253   
     axis 0 0 0   XYZ
    dof rx ry rz
    limits (-20.0 45.0)
           (-30.0 30.0)
           (-30.0 30.0)
  end
  begin
     id 15 
     name upperneck
     direction 0.00263774 0.939908 -0.341418   
     length 1.72375   
     axis 0 0 0   XYZ
    dof rx ry rz
    limits (-20.0 45.0)
           (-30.0 30.0)
           (-30.0 30.0)
  end
  begin
     id 16
     name head
     direction -0.00526001 0.989001 -0.147818  
     length 1.74878  
     axis 0 0 0   XYZ
    dof rx ry rz
    limits (-20.0 45.0)
           (-30.0 30.0)
           (-30.0 30.0)
  end
  begin
     id 17 
     name lclavicle
     direction 0.881214 0.461162 -0.103884  
     length 3.25108  
     axis 0 0 0   XYZ
    dof ry rz
    limits (-20.0 10.0)
           (0.0 20.0)
  end
  begin
     id 18 
     name lhumerus
     direction 1 -4.4899e-011 3.38092e-027   
     length 4.87408   
     axis 180 -30 -90   XYZ
    dof rx ry rz
    limits (-60.0 90.0)
           (-90.0 90.0)
           (-90.0 90.0)
  end
  begin
     id 19
     name lradius
     direction 1 -4.48931e-011 9.96288e-027   
     length 2.76729   
     axis 180 -30 -90   XYZ
    dof rx
    limits (-10.0 170.0)
  end
  begin
     id 20
     name lwrist
     direction 1 -4.4896e-011 1.50617e-026   
     length 1.38364   
     axis -9.31234e-015 90 90   XYZ
    dof ry
    limits (-180.0 0.0)
 end
  begin
     id 21 
     name lhand
     direction 1 -4.49038e-011 3.01286e-026   
     length 0.98922   
     axis -1.92217e-014 90 90   XYZ
    dof rx rz
    limits (-90.0 90.0)
           (-45.0 45.0)
  end
  begin
     id 22 
     name lfingers
     direction 1 -4.49051e-011 6.02588e-026   
     length 0.797535   
     axis -3.84436e-014 90 90   XYZ
    dof rx
    limits (0.0 90.0)
  end
  begin
     id 23
     name lthumb
     direction 0.707107 -6.34901e-011 0.707107   
     length 1.14511   
     axis -90 45 2.19363e-014   XYZ
    dof rx rz
    limits (-45.0 45.0)
           (-45.0 45.0)
  end
  begin
     id 24 
     name rclavicle
     direction -0.893894 0.441652 -0.0767889   
     length 3.29361  
     axis 0 0 0   XYZ 
    dof ry rz
    limits (-10.0 20.0)
           (-20.0 0.0)
  end
  begin
     id 25 
     name rhumerus
     direction -1 -4.48945e-011 8.0491e-028  
     length 4.71404   
     axis 180 30 90   XYZ
    dof rx ry rz
    limits (-90.0 60.0)
           (-90.0 90.0)
           (-90.0 90.0)
  end
  begin
     id 26 
     name rradius
     direction -1 -4.48986e-011 9.27795e-027   
     length 2.83468   
     axis 180 30 90   XYZ
    dof rx
    limits (-10.0 170.0)
  end
  begin
     id 27 
     name rwrist
     direction -1 -4.49029e-011 1.5064e-026   
     length 1.41734   
     axis -9.31234e-015 -90 -90   XYZ
    dof ry
    limits (-180.0 0.0)
  end
  begin
     id 28
     name rhand
     direction -1 -4.48857e-011 3.01165e-026   
     length 0.868195   
     axis -1.92217e-014 -90 -90   XYZ
    dof rx rz
    limits (-90.0 90.0)
           (-45.0 45.0)
  end
  begin
     id 29
     name rfingers
     direction -1 -4.49048e-011 6.02585e-026   
     length 0.699961   
     axis -3.84436e-014 -90 -90   XYZ
    dof rx
    limits (0.0 90.0)
  end
  begin
     id 30
     name rthumb
     direction -0.707107 -6.34854e-011 0.707107   
     length 1.00501   
     axis -90 -45 -2.19363e-014   XYZ
    dof rx rz
    limits (-45.0 45.0)
           (-45.0 45.0)
  end
:hierarchy
  begin
    root lhipjoint rhipjoint lowerback
    lhipjoint lfemur
    lfemur ltibia
    ltibia lfoot
    lfoot ltoes
    rhipjoint rfemur
    rfemur rtibia
    rtibia rfoot
    rfoot rtoes
    lowerback upperback
    upperback thorax
    thorax lowerneck lclavicle rclavicle
    lowerneck upperneck
    upperneck head
    lclavicle lhumerus
    lhumerus lradius
    lradius lwrist
    lwrist lhand lthumb
    lhand lfingers
    rclavicle rhumerus
    rhumerus rradius
    rradius rwrist
    rwrist rhand rthumb
    rhand rfingers
  end

#!OML:ASF H:\ManfredObstacles\Project 1\Capture day 2\Session 1\male.ASF
:FULLY-SPECIFIED
:DEGREES
80
root 2.0204 15.1635 21.4691 -172.947 -13.6566 182.94
lowerback 17.7633 1.72371 -2.04335
upperback 10.5928 0.174129 -0.964875
thorax 1.36212 -0.710522 0.0903116
lowerneck -31.9325 0.827046 1.94463
upperneck 34.4252 -0.368161 -1.38975
head 18.2863 -0.412069 -1.18013
rclavicle -8.34896e-015 6.36111e-015
rhumerus -15.5729 15.6095 -95.1048
rradius 55.9484
rwrist 31.5134
rhand -5.3906 -3.45557
rfingers 7.12502
rthumb 20.4181 -32.4021
lclavicle -8.34896e-015 6.36111e-015
lhumerus -17.9467 -31.798 91.4791
lradius 52.2995
lwrist -26.2654
lhand -11.5173 12.0553
lfingers 7.12502
lthumb 14.5222 41.527
rfemur -44.8712 10.9621 17.9888
rtibia 59.9185
rfoot -9.69907 -23.737
rtoes -19.8501
lfemur -40.3948 -5.50611 -20.9945
ltibia 45.7889
lfoot -0.497917 22.1361
ltoes 12.734
81
root 2.04987 15.1622 21.4128 -172.66 -14.2609 183.079
lowerback 18.3007 1.55166 -1.89265
upperback 10.7843 -0.106703 -0.881238
thorax 1.30014 -0.871933 0.138782
lowerneck -31.9612 0.880979 2.02435
upperneck 34.0764 -0.210548 -1.53398
head 18.1049 -0.349124 -1.21122
rclavicle 8.74653e-015 -3.18055e-015
rhumerus -15.3643 15.7825 -95.2213
rradius 56.1857
rwrist 31.6995
rhand -5.65022 -3.41375
rfingers 7.12502
rthumb 20.1686 -32.3868
lclavicle 8.74653e-015 -3.18055e-015
lhumerus -17.3701 -31.9041 91.3775
lradius 52.1083
lwrist -26.4146
lhand -11.474 12.2653
lfingers 7.12502
lthumb 14.5638 41.734
rfemur -45.1959 11.9079 17.0748
rtibia 57.2686
rfoot -10.0493 -23.1923
rtoes -20.3908
lfemur -40.7854 -5.94423 -20.6449
ltibia 46.0928
lfoot -0.703418 22.164
ltoes 12.7287
82
root 2.0798 15.1576 21.3562 -172.359 -14.9077 183.199
lowerback 18.8308 1.36654 -1.75458
upperback 10.9784 -0.404808 -0.784193
thorax 1.24677 -1.04308 0.214628
lowerneck -31.9917 0.916992 2.02992
upperneck 33.7392 -0.0556856 -1.65048
head 17.9328 -0.293626 -1.21783
rclavicle -7.15625e-015 -4.21423e-014
rhumerus -15.1447 15.9921 -95.3021
rradius 56.4521
rwrist 31.7102
rhand -5.92497 -3.43549
rfingers 7.12502
rthumb 19.9045 -32.4362
lclavicle -7.15625e-015 -4.21423e-014
lhumerus -16.7964 -31.9098 91.283
lradius 51.9582
lwrist -26.4595
lhand -11.4385 12.5256
lfingers 7.12502
lthumb 14.598 41.9919
rfemur -45.4558 12.7772 16.1631
rtibia 54.6688
rfoot -10.2048 -22.3695
rtoes -21.1118
lfemur -41.2166 -6.39274 -20.3124
ltibia 46.4302
lfoot -0.929433 22.1886
ltoes 12.7206
83
root 2.11053 15.15 21.2992 -172.056 -15.5813 183.297
lowerback 19.3599 1.18809 -1.60611
upperback 11.1615 -0.688458 -0.700562
thorax 1.18359 -1.20482 0.27153
lowerneck -31.9649 0.936637 2.04764
upperneck 33.3906 0.0627773 -1.76465
head 17.7426 -0.251137 -1.23382
rclavicle -4.21423e-014 1.19271e-014
rhumerus -14.9689 16.1303 -95.3882
rradius 56.7619
rwrist 31.6948
rhand -6.20194 -3.50479
rfingers 7.12502
rthumb 19.6382 -32.5329
lclavicle -4.21423e-014 1.19271e-014
lhumerus -16.2796 -31.9008 91.1886
lradius 51.8574
lwrist -26.4614
lhand -11.4159 12.8121
lfingers 7.12502
lthumb 14.6199 42.2768
rfemur -45.647 13.5703 15.2788
rtibia 52.1699
rfoot -10.1955 -21.3367
rtoes -21.8318
lfemur -41.6733 -6.83947 -19.9962
ltibia 46.8019
lfoot -1.18062 22.2149
ltoes 12.7056
84
root 2.14212 15.1404 21.2415 -171.76 -16.2747 183.367
lowerback 19.8906 1.02034 -1.45333
upperback 11.3393 -0.954881 -0.635891
thorax 1.11513 -1.35652 0.306214
lowerneck -31.9441 0.909607 2.01034
upperneck 33.0787 0.113171 -1.8286
head 17.5736 -0.235866 -1.23468
rclavicle -1.59028e-015 -2.62396e-014
rhumerus -14.8164 16.1982 -95.4817
rradius 57.0887
rwrist 31.6573
rhand -6.50347 -3.58194
rfingers 7.12502
rthumb 19.3483 -32.6394
lclavicle -1.59028e-015 -2.62396e-014
lhumerus -15.7957 -31.9168 91.0833
lradius 51.7928
lwrist -26.3988
lhand -11.4167 13.1452
lfingers 7.12502
lthumb 14.619 42.6099
rfemur -45.7644 14.2893 14.4334
rtibia 49.8217
rfoot -10.0802 -20.1552
rtoes -22.5842
lfemur -42.134 -7.2751 -19.7079
ltibia 47.2024
lfoot -1.49128 22.2339
ltoes 12.7106
